<svg width="361" height="361" viewBox="0 0 361 361" fill="none" xmlns="http://www.w3.org/2000/svg">
<path d="M360.856 180.386V181.466C360.832 184.178 360.754 186.878 360.623 189.565C358.284 235.557 338.443 278.913 305.167 310.747C271.891 342.581 227.699 360.483 181.649 360.785C135.599 361.086 91.177 343.763 57.4873 312.367C23.7976 280.971 3.3914 237.879 0.450526 191.921C0.205086 188.105 0.082403 184.26 0.082423 180.386C0.0176757 143.025 11.6129 106.575 33.2516 76.1179C34.9818 73.6636 36.7815 71.2544 38.6508 68.8902C39.9393 67.2458 41.2646 65.6383 42.6022 64.043C73.0531 27.9686 116.43 5.26616 163.427 0.80641C210.425 -3.65334 257.298 10.4849 293.99 40.1878C296.162 41.9425 298.298 43.7587 300.384 45.6116C302.053 47.0965 303.693 48.614 305.304 50.1643C337.045 80.5248 356.581 121.448 360.23 165.219C360.648 170.226 360.856 175.282 360.856 180.386Z" fill="#0055DE"/>
<path d="M38.6508 68.891C38.7393 68.9281 38.8219 68.9777 38.8963 69.0382C39.8657 69.8359 38.6509 71.3698 38.7981 72.6337C38.9699 74.2535 41.1296 74.6094 42.7617 74.7689C44.3938 74.9407 46.4554 76.2537 45.6823 77.7017C41.5837 79.1129 37.436 77.7263 33.2515 76.1187C11.6129 106.576 0.0176902 143.026 0.0824229 180.387C0.0824229 184.265 0.205099 188.11 0.450526 191.922C0.793627 192.173 1.16935 192.375 1.56723 192.523C2.79435 192.99 4.21781 192.904 5.34677 193.567C6.24257 194.094 6.84386 195.027 7.73965 195.518C10.3043 196.917 13.863 194.229 16.2559 195.898C16.8744 196.461 17.4603 197.06 18.0106 197.69C20.2195 199.604 23.8517 198.316 26.4041 199.751C28.0485 200.672 28.8952 202.512 29.7788 204.181C31.9753 208.353 35.534 212.452 40.2339 212.783C41.7161 212.715 43.2015 212.764 44.676 212.931C46.124 213.262 47.5475 214.526 47.3144 215.986C46.9094 218.502 48.1488 221.25 47.8175 223.766C47.2162 228.368 40.7001 230.38 40.1479 234.982C40.1461 235.995 40.0888 237.007 39.9762 238.013C39.6817 239.216 38.7735 240.197 38.4545 241.4C37.8409 243.67 39.473 245.94 41.2523 247.462C43.0439 248.996 45.1792 250.321 46.1609 252.456C47.1916 254.726 46.6885 257.365 47.0198 259.831C47.7561 265.218 52.4069 269.206 57.1927 271.783C58.7263 272.424 60.0881 273.416 61.1685 274.679C62.3957 276.459 62.2729 278.803 62.6902 280.925C63.6964 286.116 68.0649 290.399 68.1876 295.688C68.2735 299.455 66.1875 302.866 64.9358 306.413C63.6482 310.13 63.2654 314.101 63.8191 317.997C70.8159 323.931 78.2532 329.325 86.0669 334.133C86.4919 333.505 86.8034 332.808 86.9872 332.072C87.1356 331.258 87.0332 330.419 86.6935 329.665C86.3538 328.911 85.7929 328.278 85.0852 327.85C86.404 327.352 87.6037 326.583 88.607 325.593C89.0999 325.086 89.4255 324.44 89.5396 323.742C89.6537 323.044 89.5509 322.328 89.2451 321.69C91.4049 321.96 93.9696 322.095 95.393 320.439C96.5342 319.113 96.4606 317.125 96.0066 315.444C95.5526 313.751 94.7917 312.119 94.7794 310.364C99.7833 310.608 104.799 310.439 109.775 309.861C109.055 307.434 107.417 305.382 105.21 304.142C107.468 303.762 109.517 301.062 110.229 298.89C110.844 296.674 110.878 294.337 110.327 292.104C110.156 291.531 110.131 290.923 110.253 290.337C110.616 289.559 111.255 288.943 112.045 288.607C115.776 286.46 119.506 284.316 123.236 282.177C123.902 281.841 124.507 281.398 125.028 280.864C126.194 279.477 126.022 277.404 125.421 275.698C124.819 273.992 123.862 272.385 123.629 270.593C122.942 265.23 128.685 261.377 130.624 256.322C131.283 254.303 131.639 252.198 131.679 250.076C131.839 247.793 131.851 245.155 130.108 243.694C128.427 242.283 125.813 242.602 124.059 241.289C122.451 240.087 121.899 237.767 120.144 236.798C118.549 235.915 116.561 236.479 114.782 236.062C111.665 235.338 109.701 231.742 106.511 231.411C104.719 231.215 102.682 232.098 101.21 231.055C99.9088 230.123 99.8597 228.27 99.6143 226.699C99.1786 224.252 98.0043 221.998 96.2493 220.238C94.4943 218.479 92.2428 217.299 89.7973 216.857C87.9444 216.563 85.9319 216.673 84.3489 215.655C82.7536 214.624 82.0296 212.697 80.7657 211.262C78.7532 208.967 75.5627 208.145 72.5808 207.445C68.5313 206.5 64.4859 205.551 60.4445 204.598C58.2971 204.083 55.5238 203.813 54.358 205.703C54.013 206.421 53.7733 207.186 53.6463 207.973C53.208 209.389 52.3338 210.631 51.1483 211.521C49.9629 212.411 48.5267 212.905 47.0444 212.931C46.0296 211.198 44.3857 209.923 42.4549 209.372C41.1933 209.16 39.9471 208.865 38.7245 208.488C38.086 208.176 37.518 207.736 37.0553 207.196C36.5926 206.656 36.245 206.027 36.0337 205.348C35.8223 204.67 35.7517 203.955 35.8261 203.248C35.9006 202.541 36.1185 201.856 36.4666 201.236C37.1624 199.991 37.43 198.551 37.2283 197.139C37.0266 195.727 36.3666 194.42 35.3499 193.419C33.2883 191.566 30.3064 191.112 27.5331 191.296C26.8091 189.713 28.024 187.934 29.3247 186.781C30.6377 185.639 32.2208 184.51 32.503 182.792C32.957 180.093 29.5088 178.043 26.895 178.841C24.2813 179.651 22.6124 182.191 21.508 184.694C20.9723 186.172 20.2419 187.571 19.336 188.854C18.8718 189.49 18.241 189.984 17.5133 190.283C16.7856 190.582 15.9894 190.673 15.2129 190.548C13.0531 189.996 12.2309 187.431 11.7523 185.271C10.9855 182.385 10.5977 179.41 10.5988 176.424C10.6176 173.407 11.8156 170.518 13.9366 168.374C17.5075 165.085 23.005 165.404 27.8276 165.932C27.311 165.243 27.0635 164.389 27.1313 163.531C27.199 162.672 27.5775 161.868 28.1958 161.269C28.8411 160.696 29.6166 160.289 30.4549 160.084C31.2932 159.878 32.1689 159.881 33.0061 160.091C34.46 160.392 35.77 161.174 36.7243 162.312C38.0986 163.981 38.4913 166.251 39.5221 168.141C40.5652 170.043 42.8967 171.662 44.7987 170.644C46.4553 169.76 46.713 167.478 46.3081 165.65C45.8909 163.833 45.0196 162.054 45.1668 160.189C45.4491 156.642 49.1427 154.495 52.3946 153.035C55.6465 151.574 59.3646 149.599 59.88 146.065C59.9038 145.377 60.0364 144.698 60.2727 144.052C60.6326 143.476 61.1357 143.002 61.733 142.678C71.2186 136.407 80.8761 130.051 91.7238 126.627C92.2883 126.443 92.3497 126.639 92.9264 126.504C93.7363 126.038 93.1964 124.75 92.4233 124.234C91.6502 123.719 90.6195 123.314 90.4231 122.406C90.2881 121.743 90.6808 121.081 90.779 120.406C90.8046 119.998 90.7299 119.59 90.5614 119.218C90.3928 118.846 90.1355 118.521 89.8121 118.272C89.4887 118.022 89.109 117.856 88.7064 117.787C88.3037 117.718 87.8904 117.749 87.5026 117.878C86.6313 116.724 88.3493 115.387 89.7482 114.994C93.9368 113.847 98.2353 113.147 102.572 112.908C103.072 112.825 103.586 112.912 104.032 113.153C104.351 113.461 104.54 113.879 104.56 114.322C104.581 114.764 104.431 115.198 104.142 115.534C103.552 116.19 102.898 116.786 102.191 117.313C101.487 117.997 100.984 118.861 100.738 119.811C100.491 120.761 100.51 121.76 100.792 122.7C103.063 123.854 105.517 125.044 108.032 124.639C110.536 124.234 112.757 121.412 111.579 119.166C110.487 117.068 107.186 116.589 106.621 114.295C105.958 111.607 109.763 109.214 108.904 106.588C108.535 105.435 107.382 104.747 106.498 103.925C105.459 102.902 104.751 101.588 104.469 100.157C104.187 98.7252 104.342 97.2418 104.915 95.8999C103.479 96.151 102.003 96.0547 100.611 95.6192C99.2193 95.1837 97.9519 94.4217 96.9146 93.3966C95.0003 91.47 93.4786 88.4145 90.7544 88.5127C88.2634 88.5863 86.1159 91.4946 83.7843 90.6111C83.2076 90.3902 82.6063 89.9484 82.0541 90.2061C81.8719 90.3232 81.7188 90.4801 81.6061 90.6651C81.4934 90.85 81.4243 91.0581 81.4038 91.2737C80.8148 94.1083 81.8333 97.3357 80.2871 99.7899C78.6059 102.453 74.7159 102.821 72.6789 105.226C71.5745 106.527 71.145 108.282 70.1265 109.656C69.108 111.03 66.9605 111.914 65.7334 110.711C66.3344 109.479 66.4989 108.08 66.2002 106.742C65.9014 105.404 65.157 104.208 64.0891 103.349C62.9588 102.607 61.7381 102.013 60.4568 101.582C59.0254 100.977 57.6636 100.22 56.395 99.3237C55.7628 98.9386 55.249 98.3866 54.9102 97.7284C54.6421 96.9008 54.6769 96.0049 55.0083 95.2005C55.6296 93.4283 56.7223 91.8588 58.1687 90.661C59.6152 89.4632 61.3608 88.6823 63.2178 88.4023C64.8376 88.1814 66.7274 88.255 67.8072 87.0156C68.3717 86.3653 68.6662 85.3713 69.5006 85.1136C70.0263 85.0039 70.5735 85.0685 71.0591 85.2977C73.0839 86.0094 75.0963 86.7212 77.1211 87.4329C77.7962 87.7425 78.5421 87.8654 79.2808 87.7888C79.647 87.7415 79.9814 87.5567 80.2161 87.2718C80.4509 86.9869 80.5684 86.6233 80.5448 86.2549C80.3484 85.2486 78.8022 84.77 78.9495 83.7515C79.021 83.4188 79.1974 83.1177 79.4527 82.8925C81.6413 80.5646 84.3173 78.7491 87.2894 77.576C90.2614 76.4029 93.456 75.9011 96.6446 76.1065C97.4054 77.3705 96.2029 78.8553 95.1843 79.9229C94.1781 81.0028 93.3682 82.9171 94.5954 83.7392C95.0904 83.9988 95.6442 84.1257 96.2029 84.1074C97.6951 84.3076 99.1453 84.7468 100.498 85.4081C102.596 86.3162 104.658 87.3224 106.67 88.4023C106.374 87.0866 106.425 85.7166 106.817 84.4264C107.039 83.7931 107.489 83.2651 108.079 82.9452C108.668 82.6254 109.356 82.5366 110.008 82.6962C111.211 83.1625 111.824 84.7577 113.113 84.905C114.818 85.1013 115.493 82.5735 114.782 81.0027C114.07 79.432 112.646 78.1313 112.536 76.401C112.45 75.2476 112.892 73.8118 111.971 73.1124C111.644 72.8956 111.27 72.7609 110.879 72.7197C103.173 71.3085 95.4625 69.8932 87.748 68.4738C86.3736 68.2161 84.398 68.4125 84.3366 69.7991C84.2998 70.5845 84.9992 71.3576 84.6925 72.0693C84.3611 72.8301 83.2813 72.7688 82.4959 73.0387C81.9059 73.3064 81.419 73.759 81.109 74.328C80.7991 74.897 80.6828 75.5515 80.7779 76.1924C80.9877 77.4684 81.4827 78.6806 82.2259 79.7388C80.7166 79.113 78.4464 79.0025 76.937 78.3644C76.7175 76.6167 76.272 74.9049 75.6117 73.2719C75.574 73.012 75.4798 72.7635 75.3357 72.544C75.1916 72.3244 75.0011 72.1391 74.7777 72.0011C74.5542 71.863 74.3033 71.7756 74.0424 71.745C73.7816 71.7144 73.5172 71.7413 73.2679 71.8239C71.28 72.1307 69.292 72.4252 67.3041 72.7319C66.8049 72.7556 66.3269 72.9408 65.942 73.2596C65.1689 74.0818 65.9297 75.3948 65.9052 76.5238C65.8333 77.155 65.5666 77.7482 65.1422 78.221C64.7178 78.6938 64.1567 79.0227 63.5368 79.1621C62.2879 79.4157 60.9992 79.3989 59.7573 79.113C56.9717 78.6835 54.1984 78.254 51.4129 77.8245C53.8717 77.041 56.0585 75.5775 57.7203 73.6032C58.8247 72.3025 59.4137 69.8728 57.8184 69.2592C57.3473 69.1298 56.8557 69.0923 56.3704 69.1488C52.5909 69.1733 49.609 66.0196 46.0749 64.6821C44.9637 64.2675 43.7882 64.0515 42.6021 64.0439L38.6508 68.891Z" fill="#E2FFEE"/>
<path d="M360.623 189.565C360.19 190.146 359.622 190.612 358.967 190.923C358.312 191.233 357.592 191.378 356.868 191.345C353.027 191.013 351.407 185.479 347.603 184.853C347.267 184.767 346.911 184.802 346.597 184.951C346.033 185.258 345.934 186.019 345.898 186.657C345.738 189.823 345.603 193.112 346.843 196.032C348.646 200.303 353.322 203.886 352.34 208.414C347.063 205.972 344.315 200.045 343.075 194.363C341.824 188.682 341.627 182.718 339.394 177.343C337.688 179.515 334.13 177.724 332.583 175.441C331.111 173.282 330.203 170.778 328.779 168.582C327.356 166.397 325.172 164.434 322.57 164.311C319.834 164.189 317.453 166.066 315.367 167.845C313.552 169.186 312.028 170.881 310.888 172.827C309.428 175.773 309.808 179.233 309.734 182.509C309.661 186.044 308.912 189.786 306.495 192.388C304.077 194.977 299.623 195.885 296.96 193.541C295.673 192.199 294.755 190.546 294.297 188.743C291.402 180.306 288.993 171.711 287.082 162.998C286.64 164.986 284.885 167.551 283.216 166.385C282.843 166.068 282.542 165.675 282.333 165.232C279.216 159.967 273.461 156.801 267.632 154.899C261.815 153.01 255.692 152.126 249.937 150.04C246.709 148.868 243.626 147.332 240.746 145.463C240.014 146.54 239.587 147.795 239.509 149.096C239.431 150.396 239.706 151.693 240.304 152.85C240.951 153.982 241.953 154.869 243.156 155.373C244.359 155.877 245.694 155.969 246.955 155.636C248.231 155.218 249.311 154.335 250.575 153.893C251.839 153.464 253.544 153.672 254.097 154.899C254.637 156.065 253.827 157.476 254.232 158.703C254.833 160.556 257.643 160.704 258.625 162.397C258.913 163.068 258.98 163.813 258.814 164.524C258.648 165.235 258.26 165.874 257.704 166.348C256.575 167.269 255.329 168.037 253.998 168.631C249.875 170.926 246.943 174.84 243.335 177.883C239.727 180.939 234.635 183.16 230.34 181.209C231.358 176.018 225.186 172.214 224.044 167.048C223.664 165.342 223.86 163.538 223.333 161.882C222.56 159.476 220.424 157.832 218.682 156.016C216.565 153.786 214.915 151.156 213.83 148.279C212.745 145.403 212.246 142.338 212.362 139.266C212.46 137.131 212.853 134.959 212.362 132.872C211.884 130.799 210.153 128.786 208.018 128.872C203.147 129.093 196.999 129.461 194.446 125.301C193.526 123.816 193.133 121.644 194.459 120.503C195.391 119.705 196.766 119.779 197.98 119.902C201.649 120.258 205.306 120.626 208.975 120.982C211.54 121.227 214.313 121.436 216.522 120.098C218.731 118.761 219.688 115.19 217.639 113.607C216.154 112.453 213.479 112.515 213.037 110.686C212.681 109.152 214.375 107.422 213.454 106.133C212.804 105.225 211.331 105.471 210.436 106.158C209.654 106.97 208.804 107.713 207.896 108.379C206.141 109.287 204.055 108.416 202.165 107.827C200.275 107.238 197.747 107.189 196.839 108.944C195.808 110.895 197.735 113.472 196.729 115.435C195.379 118.024 190.838 116.552 188.949 118.785C186.789 121.338 190.421 125.166 189.697 128.43C188.765 128.893 187.729 129.105 186.69 129.047C185.651 128.989 184.645 128.662 183.77 128.099C182.912 127.515 182.228 126.709 181.791 125.767C181.354 124.824 181.182 123.781 181.291 122.749C181.463 121.276 182.236 119.767 181.721 118.38C181.165 117.309 180.248 116.47 179.132 116.012C175.573 114.036 172.014 112.069 168.456 110.109C167.462 111.95 168.713 114.22 170.284 115.607C171.843 116.981 173.806 118.024 174.837 119.84C175.489 121.099 175.637 122.56 175.249 123.923C174.862 125.287 173.968 126.452 172.751 127.179C172.597 127.285 172.421 127.356 172.237 127.388C172.053 127.42 171.864 127.411 171.683 127.363C171.513 127.263 171.364 127.13 171.246 126.972C171.128 126.814 171.043 126.634 170.996 126.442C169.118 121.62 166.284 116.871 161.768 114.355C157.24 111.827 150.748 112.355 147.779 116.589C147.079 117.595 146.601 118.748 145.987 119.816C142.735 125.473 135.741 128.148 129.212 127.976C128.574 128.017 127.937 127.868 127.384 127.547C126.329 126.823 126.378 125.277 126.537 124C126.77 122.197 126.991 120.405 127.224 118.601C127.23 117.5 127.656 116.442 128.415 115.644C129.63 114.687 131.372 115.288 132.918 115.263C134.085 115.211 135.208 114.8 136.132 114.087C137.057 113.373 137.739 112.391 138.084 111.275C138.395 110.149 138.393 108.96 138.077 107.835C137.761 106.711 137.144 105.694 136.293 104.894C135.593 104.231 134.648 103.397 135.017 102.501C135.166 102.254 135.368 102.043 135.607 101.882C135.847 101.721 136.118 101.614 136.403 101.569C139.164 100.771 142.097 100.562 144.809 99.6053C147.533 98.6604 150.172 96.7215 150.822 93.9114C151.018 93.0524 151.104 92.0094 151.877 91.5799C152.268 91.4232 152.684 91.34 153.104 91.3344C154.58 91.123 155.923 90.3674 156.87 89.2163C157.817 88.0651 158.299 86.6015 158.221 85.1129C159.522 84.2049 161.351 84.8798 162.615 85.8492C163.866 86.8186 164.983 88.0948 166.517 88.5121C169.376 89.2974 172.137 86.7573 175.107 86.745C176.358 86.745 177.647 87.1868 178.813 86.7573C180.003 86.3278 180.715 85.1497 181.623 84.2785C182.543 83.395 184.138 82.8673 184.985 83.8122C184.74 82.0329 184.506 80.2658 184.261 78.4987C185.707 78.8628 187.214 78.9132 188.68 78.6465C190.147 78.3798 191.54 77.8022 192.765 76.9526C189.673 75.9095 186.593 74.8665 183.5 73.8234C183.175 73.7433 182.876 73.583 182.629 73.3571C181.954 72.6331 182.629 71.5042 183.169 70.682C184.482 68.7063 184.703 65.4544 182.543 64.4727C181.071 63.7978 179.389 64.6077 177.978 65.3931C175.72 66.6447 173.462 67.9087 171.204 69.1604C170.996 70.4488 172.567 71.1851 173.536 72.0441C174.127 72.5681 174.545 73.2587 174.736 74.025C174.926 74.7913 174.881 75.5974 174.604 76.3371C174.328 77.0769 173.834 77.7157 173.188 78.1694C172.542 78.6232 171.773 78.8706 170.984 78.8791C171.428 79.4597 171.737 80.1325 171.888 80.8481C172.039 81.5637 172.028 82.3039 171.855 83.0146C170.346 83.125 168.824 83.2354 167.302 83.3459C167.049 83.3963 166.789 83.3962 166.537 83.3456C166.284 83.2951 166.044 83.1951 165.83 83.0514C165.339 82.6219 165.412 81.8611 165.29 81.223C165.088 80.4602 164.662 79.7756 164.067 79.2572C163.472 78.7389 162.735 78.4106 161.952 78.3147C160.389 78.1389 158.806 78.285 157.301 78.7442C156.647 78.9747 155.931 78.9572 155.289 78.6951C154.924 78.454 154.649 78.1008 154.503 77.6888C154.236 76.8474 154.191 75.9512 154.371 75.0871C154.552 74.2229 154.952 73.4199 155.534 72.7558C156.713 71.4472 158.011 70.2517 159.412 69.1849C162.587 66.4051 164.921 62.7919 166.149 58.7544C168.652 57.6991 171.241 56.2756 173.757 55.2203C175.779 54.283 177.899 53.5711 180.077 53.0973C182.126 52.7843 184.203 52.6856 186.274 52.8028C189.096 52.8519 191.931 52.901 194.753 52.9624C197.272 52.8565 199.79 53.2185 202.177 54.03C204.496 54.9871 206.546 57.061 206.705 59.5643C206.753 59.8496 206.728 60.1425 206.631 60.4152C206.535 60.6879 206.37 60.9315 206.153 61.1227C205.827 61.3029 205.457 61.3879 205.085 61.3682C202.742 61.4418 201.748 62.0308 199.404 62.1167C200.889 63.6997 202.557 65.3686 204.717 65.6508C208.521 66.1416 211.258 62.2026 213.013 58.7789C213.075 59.6504 213.476 60.4628 214.129 61.0428C214.783 61.6229 215.637 61.9246 216.51 61.8835C217.45 61.7219 218.347 61.3712 219.148 60.8528C226.696 56.7278 235.151 54.5435 243.752 54.4963C243.668 53.8451 243.828 53.1858 244.202 52.6462C244.576 52.1065 245.137 51.7251 245.777 51.5757C247.531 51.2321 249.102 52.7415 249.949 54.3122C250.783 55.8829 251.311 57.699 252.661 58.8771C253.998 60.0551 256.588 59.9938 257.115 58.3004C257.631 56.6683 255.925 55.2693 254.514 54.2999C253.09 53.3428 251.606 51.5634 252.563 50.1399C259.778 48.5324 267.055 46.9372 274.455 46.6181C275.712 46.6562 276.964 46.4391 278.136 45.98C278.716 45.7343 279.199 45.3041 279.509 44.7561C279.82 44.2081 279.941 43.5729 279.854 42.949C278.239 43.3258 276.549 43.2144 274.998 42.6289C273.447 42.0433 272.104 41.0101 271.141 39.6603C278.737 39.0345 286.689 38.4823 293.99 40.188L300.384 45.6118C299.169 46.8758 297.549 48.0661 298.432 49.33C298.724 49.6203 299.078 49.8407 299.466 49.9746C299.855 50.1085 300.27 50.1524 300.678 50.1031C302.224 50.1277 303.77 50.1645 305.304 50.1645C337.045 80.525 356.581 121.449 360.23 165.219C357.653 165.121 355.285 168.385 355.616 171.232C356.009 174.533 358.39 177.184 360.095 180.031C360.378 180.494 360.632 180.973 360.856 181.467L360.623 189.565Z" fill="#E2FFEE"/>
</svg>
